<svg id="Calque_1" data-name="Calque 1" xmlns="http://www.w3.org/2000/svg" width="189.12" height="173.38" viewBox="0 0 189.12 173.38"><defs><style>.cls-1,.cls-3,.cls-4{fill:#fff;}.cls-2,.cls-5{fill:#009fe3;}.cls-3,.cls-4{stroke:#fff;}.cls-3,.cls-4,.cls-5{stroke-miterlimit:10;}.cls-3{stroke-width:0.61px;}.cls-4{stroke-width:0.41px;}.cls-5{stroke:#009fe3;stroke-width:0.81px;}</style></defs><title>logo-sans-fond-V02-03</title><path class="cls-1" d="M96.61,119.58l3.81-6-4.92-3.14-2.67,4.19C94.17,116.31,95.47,118,96.61,119.58Z"/><path class="cls-1" d="M82.22,103.62C77.1,92.56,68.1,77.38,53.4,64.57c5.08-.47,14.55-1.49,23-2l3.35-6c-15.59.87-33.51,2.8-34,2.85l-7.27.83,5.84,4.41c32.77,24.69,40.34,63.69,40.41,64.08l1.35,7.29,6.76-10.59C77.25,117,80.83,106.51,82.22,103.62Z"/><path class="cls-1" d="M73.56,112s-17.09-7.75-30.55-.53c0,0,8.1-21.15,14.27-26.58A49.06,49.06,0,0,0,73.56,112Z"/><path class="cls-1" d="M80.77,65.26s11.92-15.61,7.7-33.54c0,0,20.59,13.65,28.94,23A59.14,59.14,0,0,0,80.77,65.26Z"/><path class="cls-2" d="M138,84.73s.18,4.35-5.12,9-19.3,15.87-21,19.46.67,7.56,2.49,9.18a51.14,51.14,0,0,0,9.53,6.52s-3-7.14.28-11.66,18.68-16.23,19.3-20.54C144.39,90.17,138,84.73,138,84.73Z"/><path class="cls-2" d="M141.5,104.47s1.72,2.39-1.4,5.14-11.38,9.36-12.39,11.47.4,4.46,1.47,5.42c2.57,2.29,2.73,2.92,2.73,2.92a7.78,7.78,0,0,1,1-6c1.93-2.66,11.91-9,12.27-11.56C145.73,108,141.5,104.47,141.5,104.47Z"/><path class="cls-2" d="M122.61,57.82s7.72,6.95-1,14.67-31.9,26.24-34.73,32.16S88,117.15,91,119.83c7.21,6.44,25.48,11.58,25.48,11.58s-14.67-12.61-9.27-20.07,30.89-26.83,31.91-34C140.62,66.57,122.61,57.82,122.61,57.82Zm-13.18,44.29-3.32-3.26c-.85-.84-1.59-1.21-2.22-1.1s-1.63.85-3,2.24l3.37,3.32a4.34,4.34,0,0,1,1.06,1.38,1.83,1.83,0,0,1-.07,1.29,5.45,5.45,0,0,1-1.24,1.74,12.21,12.21,0,0,1-2.22,1.78L101,108a5.21,5.21,0,0,0,1-.77c.32-.34.47-.61.45-.84a1.61,1.61,0,0,0-.55-.85l-3.23-3.18c-.38.39-.92,1-1.62,1.87l-1.55-1.17q1.88-2.34,4.13-4.63a20.26,20.26,0,0,1,3.29-2.82,4.23,4.23,0,0,1,2.62-.77,4.28,4.28,0,0,1,2.53,1.36l3.64,3.58Zm8.49-8.28-1.48-1.56,2.18-2.08-1.31-1.37a5.81,5.81,0,0,0-2.09-1.61,1.47,1.47,0,0,0-1.53.43A2.15,2.15,0,0,0,113,89.5a9.3,9.3,0,0,0,1.37,3.29l1.66,2.82L113.56,98l-1-1.88a16.53,16.53,0,0,1-1.17-2.58l-4.74-2,2.13-2,1.92,1a5.66,5.66,0,0,1,1.75-4.6,4.59,4.59,0,0,1,3.42-1.42c1.24,0,2.53.8,3.9,2.24l2.7,2.83ZM131,81.92l-6.31-.65c-.13.66.23,1.58,1.09,2.76l1.1,1.53-2.35,2.09L123.38,86a6.08,6.08,0,0,1-1.26-2.79,4.49,4.49,0,0,1,.36-2.16l-4.22-.45,2.85-2.53,5.22.54a2.81,2.81,0,0,0-.71-2.46l-.9-1.27,2.25-2,.66,1a5.91,5.91,0,0,1,1.21,2.74,5.28,5.28,0,0,1-.4,2.27l5.43.55Z"/><path class="cls-3" d="M30.37,143.63q2-1.65,3.92.68l1.21,1.47c1.28,1.55,1.25,2.87-.07,3.95l-3.67,3q-2,1.65-3.91-.67l-1.21-1.47c-1.28-1.56-1.25-2.88.09-4Zm-2.93,3.75c-.77.63-.8,1.37-.1,2.23l1.55,1.88q1.13,1.37,2.28.42L34.75,149c.74-.6.73-1.36,0-2.27l-1.52-1.84c-.73-.88-1.45-1-2.19-.42Z"/><path class="cls-3" d="M22,137.06c1.3-.84,2.46-.48,3.45,1.09l2.36,3.67,2.6-1.67c.35-.22.62-.19.81.1s.09.54-.26.77l-7.47,4.78c-.27.18-.46.17-.59,0l-2.74-4.29c-1-1.54-.86-2.7.38-3.5Zm-.81,1.71c-.65.42-.69,1.07-.12,2l2.45,3.83,3.27-2.09L24.4,138.7c-.6-.93-1.23-1.18-1.91-.75Z"/><path class="cls-3" d="M21.19,134.48l-2.65-5.4c-.11-.21,0-.41.39-.59s.59-.16.69.06l2.65,5.4,1.68-.83c.75-.37.89-1.05.4-2.05l-1.92-3.91c-.11-.22,0-.42.36-.59s.59-.15.7.08l1.93,3.94q1.17,2.39-1,3.43l-4.56,2.24a2.37,2.37,0,0,1-1.95.19,3,3,0,0,1-1.46-1.58L16,133.8c-.1-.21,0-.41.39-.59s.56-.14.67.07l.35.72c.62,1.26,1.31,1.71,2.08,1.33Z"/><path class="cls-3" d="M14.23,119.81c1.48-.54,2.52,0,3.1,1.65l.85,2.35,1.11-5a.51.51,0,0,1,.15-.28.74.74,0,0,1,.27-.16,1,1,0,0,1,.51,0,.37.37,0,0,1,.32.23.31.31,0,0,1,0,.21l-1.78,6.93L22,124.53c.39-.15.64-.06.76.25s0,.57-.41.71l-8.35,3q-.45.16-.57-.15l-1.67-4.64q-.94-2.67,1.45-3.53Zm-.74,1.33c-.81.3-1,1-.65,2l1.48,4.14,3.42-1.23-1.54-4.3q-.51-1.41-1.5-1.05Z"/><path class="cls-3" d="M15.74,110.78l1.17,5.11,2.65.56a.68.68,0,0,1,.27.13.33.33,0,0,1,.12.17.47.47,0,0,1-.11.4.76.76,0,0,1-.42.26,1.2,1.2,0,0,1-.38,0L9.86,115.5a.86.86,0,0,1-.45-.2.56.56,0,0,1-.17-.69.94.94,0,0,1,.33-.37l7.4-5.75a.76.76,0,0,1,.19-.12l.17-.05a.67.67,0,0,1,.49,0,.46.46,0,0,1,.24.31.29.29,0,0,1,0,.22.59.59,0,0,1-.18.25Zm-.12,4.86-.93-4-4.15,3.06Z"/><path class="cls-3" d="M8.89,106,17,105c.41,0,.64.1.68.44s-.14.53-.55.58l-8.12,1,.35,2.79c0,.25-.16.4-.56.45s-.58,0-.61-.31l-.82-6.59c0-.24.14-.38.52-.43s.61,0,.64.29Z"/><path class="cls-3" d="M16.51,100c.4,0,.62.13.64.48s-.16.52-.57.55l-8.79.62c-.41,0-.63-.13-.65-.49s.17-.5.57-.53Z"/><path class="cls-3" d="M15.63,94.15,7.3,90.39A.7.7,0,0,1,7,90.2.35.35,0,0,1,7,90a.46.46,0,0,1,.2-.35.81.81,0,0,1,.49-.15l.17,0,.18,0,8.42,4a1.23,1.23,0,0,1,.41.31.53.53,0,0,1,0,.71,1.07,1.07,0,0,1-.42.29L7.93,98.68a.92.92,0,0,1-.38.09.78.78,0,0,1-.47-.16.47.47,0,0,1-.19-.36A.42.42,0,0,1,7,98a.7.7,0,0,1,.26-.19Z"/><path class="cls-3" d="M11.69,86.84l.75-6c0-.23.24-.33.64-.27s.58.19.55.42l-.74,6,1.85.23c.84.11,1.33-.39,1.46-1.49l.54-4.33c0-.24.24-.34.63-.29s.57.2.54.44l-.54,4.36c-.22,1.76-1.12,2.53-2.69,2.34l-5-.63a2.35,2.35,0,0,1-1.74-.9,3,3,0,0,1-.35-2.13l.14-1.18c0-.24.25-.33.65-.28s.55.19.52.42l-.1.8c-.17,1.4.16,2.15,1,2.25Z"/><path class="cls-3" d="M20.81,68.4c.39.14.52.37.41.69s-.36.42-.74.28l-8.33-2.89c-.39-.13-.52-.37-.4-.71s.35-.39.73-.26Z"/><path class="cls-3" d="M22.57,59.47q2.1.91,1.09,3.25L21.87,66.9c-.1.23-.34.27-.71.11s-.47-.35-.37-.58l1.84-4.29c.37-.86.2-1.44-.52-1.74l-.78-.34c-.8-.34-1.41,0-1.85,1L18.66,63q-1.05,2.46-3,1.63l-.91-.39a2.07,2.07,0,0,1-1.22-3.08l.45-1c.1-.24.34-.27.71-.11s.47.34.37.57l-.51,1.19c-.31.71-.07,1.23.7,1.56l.68.3c.65.28,1.17,0,1.56-1l.83-1.92q1.11-2.59,3.24-1.68Z"/><path class="cls-3" d="M23.76,49.09q2.05,1.17.77,3.43l-1.24,2.17,4.52-2.4a.49.49,0,0,1,.31-.07,1,1,0,0,1,.29.1,1,1,0,0,1,.37.36.38.38,0,0,1,0,.39.4.4,0,0,1-.17.13l-6.42,3.15,3,1.72c.36.21.46.46.29.75s-.44.35-.8.15L17,54.57c-.28-.16-.37-.33-.26-.52l2.45-4.29q1.39-2.46,3.62-1.2Zm-1.49.3c-.75-.42-1.4-.15-1.95.82L18.14,54l3.15,1.8,2.27-4c.49-.87.43-1.47-.17-1.82Z"/><path class="cls-3" d="M31.6,44.39,28.47,48.6,29.77,51a.68.68,0,0,1,.07.29.41.41,0,0,1-.05.21.47.47,0,0,1-.37.17.7.7,0,0,1-.48-.16,1.09,1.09,0,0,1-.25-.27L24.19,43a.93.93,0,0,1-.14-.47.56.56,0,0,1,.11-.37.58.58,0,0,1,.31-.21.91.91,0,0,1,.49,0l9.18,1.9a.65.65,0,0,1,.21.06l.15.1a.65.65,0,0,1,.29.4.48.48,0,0,1-.08.39.39.39,0,0,1-.19.12.72.72,0,0,1-.3,0Zm-3.77,3.06,2.46-3.32-5-1.18Z"/><path class="cls-3" d="M32.37,39.07,36.5,34.7c.16-.17.39-.12.68.16s.36.49.19.67L33.24,39.9l1.36,1.28c.62.58,1.3.47,2.06-.34l3-3.16c.17-.18.4-.14.69.13s.34.49.17.67l-3,3.2c-1.21,1.28-2.4,1.38-3.55.29l-3.69-3.48a2.38,2.38,0,0,1-.87-1.76,3,3,0,0,1,1-1.92l.82-.87c.17-.17.39-.12.69.16s.33.47.17.64l-.55.59c-1,1-1.14,1.83-.52,2.41Z"/><path class="cls-3" d="M44,35.4c-1.61,1.37-3,1.42-4.06.13l-4.44-5.2c-.26-.31-.26-.57,0-.79s.52-.19.79.12l4.44,5.21c.58.69,1.4.57,2.47-.33l3-2.58c.19-.17.43-.1.7.22s.26.5.06.67Z"/><path class="cls-3" d="M48.43,31.19c.24.33.22.59-.06.8s-.53.14-.77-.19l-5.22-7.1c-.24-.33-.22-.6.07-.81s.51-.13.75.2Z"/><path class="cls-3" d="M65,20.08q.93,2.1-1.41,3.13l-4.15,1.84c-.23.1-.43,0-.59-.4s-.12-.57.11-.68l4.27-1.89c.85-.38,1.12-.92.81-1.63l-.35-.78c-.35-.79-1-1-2-.51L59.75,20q-2.45,1.08-3.29-.82l-.4-.91a2.07,2.07,0,0,1,1.2-3.09l1-.46c.23-.1.43,0,.6.41s.11.56-.12.67l-1.18.52A1.07,1.07,0,0,0,57,17.93l.3.68c.29.65.88.77,1.79.37L61,18.13q2.58-1.14,3.52,1Z"/><path class="cls-3" d="M67.6,16l1.49-5.13a.42.42,0,0,1,.26-.29.48.48,0,0,1,.41.07.66.66,0,0,1,.3.38.75.75,0,0,1,0,.42l-1.6,5.5,1.14,3.46c.1.4,0,.64-.28.74s-.55,0-.68-.43L67.5,17.24l-4.57-3.46a.69.69,0,0,1-.25-.33.72.72,0,0,1,0-.48.45.45,0,0,1,.28-.29.35.35,0,0,1,.18,0,.3.3,0,0,1,.2.09Z"/><path class="cls-3" d="M80.28,15.89c.32,1.49-.35,2.41-2,2.77l-4.44,1c-.24.05-.41-.12-.5-.51s0-.59.26-.64l4.56-1c.91-.19,1.29-.67,1.12-1.43l-.18-.84c-.18-.84-.82-1.15-1.91-.91l-2,.43c-1.74.38-2.75-.12-3-1.47l-.21-1A2.09,2.09,0,0,1,73.71,9.5l1.11-.24c.25,0,.41.12.5.52s0,.58-.26.63l-1.26.28q-1.14.24-.87,1.47l.16.73c.14.69.7.93,1.67.72l2-.44c1.85-.39,2.93.16,3.25,1.67Z"/><path class="cls-3" d="M82.91,9.08l1,8.11c0,.41-.1.64-.44.68s-.53-.14-.58-.55l-1-8.12-2.78.34c-.26,0-.41-.15-.46-.55s.06-.58.31-.61l6.6-.82c.24,0,.38.14.43.52s0,.62-.29.65Z"/><path class="cls-3" d="M88.79,11.74l6-.15c.24,0,.36.2.37.6s-.1.6-.34.61l-6,.14,0,1.87c0,.84.58,1.25,1.69,1.22l4.36-.1c.24,0,.37.19.38.58s-.11.59-.36.6l-4.39.1c-1.77,0-2.67-.73-2.71-2.32l-.12-5.07A2.36,2.36,0,0,1,88.35,8,3,3,0,0,1,90.4,7.3l1.2,0c.23,0,.36.2.36.6s-.1.57-.33.58l-.81,0c-1.41,0-2.1.47-2.08,1.32Z"/><path class="cls-3" d="M107.47,17.76c0,.41-.24.6-.58.56s-.47-.27-.42-.68l.84-7.18-4.64,6.85a.79.79,0,0,1-.75.42.61.61,0,0,1-.39-.17,1.21,1.21,0,0,1-.26-.42l-3-7.71-.83,7.15c-.05.41-.24.6-.56.56s-.48-.27-.44-.68l1-8.52q.1-.84.66-.78c.27,0,.47.24.61.6l3.4,8.52,5.21-7.59a.89.89,0,0,1,.31-.3.66.66,0,0,1,.36-.07c.39,0,.56.36.49.95Z"/><path class="cls-4" d="M118.16,21.35a2.48,2.48,0,0,1-.44-1.11,3.5,3.5,0,0,1,.29-1.59l2.12-5.45a1.41,1.41,0,0,0,.13-.63c0-.14-.17-.27-.4-.4a11.24,11.24,0,0,1,2.48-1.79l-.39,1,2.78,1.08a11.53,11.53,0,0,1,2.51,1.25,1.85,1.85,0,0,1,.85,1.39,10.77,10.77,0,0,1-1,3.39,11.69,11.69,0,0,1-2.12,4,6.3,6.3,0,0,1-1.14.9.93.93,0,0,1-.73-.07Zm6.27.48a17.29,17.29,0,0,0,1.39-3.07,5.17,5.17,0,0,0,.57-3.08,1.32,1.32,0,0,0-.54-.7,9.75,9.75,0,0,0-1.65-.76l-2.91-1.13-2.54,6.53Z"/><path class="cls-4" d="M131.4,18.52q-1.89,5-2.07,5.87a7,7,0,0,0,1,.68,3.52,3.52,0,0,0,2.78.26A4.58,4.58,0,0,0,135.68,23q1.4-2.54-.5-3.58a2.32,2.32,0,0,0-1.21-.23l-1,.08,1.67-1.62a2.47,2.47,0,0,1,1.74.37,2.58,2.58,0,0,1,1.34,2,4.3,4.3,0,0,1-.6,2.85,8.23,8.23,0,0,1-2.39,2.74,5.9,5.9,0,0,1-3.1,1.2,4.81,4.81,0,0,1-2.75-.49,2.76,2.76,0,0,1-.93-.7q-.18-.28.36-1.95l1-3.33a18.11,18.11,0,0,0,.84-3.2c0-.18,0-.37.05-.56l2-1.28A13.38,13.38,0,0,1,131.4,18.52Z"/><path class="cls-4" d="M143.19,21.07l-.5,1,4.14,3a3.12,3.12,0,0,1,.78.74,1.35,1.35,0,0,1,.12.85,4.83,4.83,0,0,1-1.06,2,9.83,9.83,0,0,1-3,2.78,7.19,7.19,0,0,1-3.44,1,4.37,4.37,0,0,1-2.74-.7c-.48-.36-.56-1-.24-1.87l2.43-5.12.44-.89a1.36,1.36,0,0,0,.18-.78,1.75,1.75,0,0,0-.34-.87Zm-1.38,2.6-3,6.07c-.19.39-.06.76.4,1.11a2.94,2.94,0,0,0,3.11.11,6.9,6.9,0,0,0,2.82-2.18c.86-1.17.93-2,.21-2.54Z"/><path class="cls-4" d="M150.51,32.54c-.6.67-2,1.28-4.1,1.85l-1-.32c.44-.21,1-.43,1.58-.67a7.32,7.32,0,0,0,2.19-1.19,1.65,1.65,0,0,0,.38-.86,13.56,13.56,0,0,0-.57-3.13l2.06-.58a21.5,21.5,0,0,1,.12,3.5A2.57,2.57,0,0,1,150.51,32.54Z"/><path class="cls-4" d="M156.45,32.31l-.67.86L159.25,37a3.19,3.19,0,0,1,.63.87,1.36,1.36,0,0,1,0,.86,5,5,0,0,1-1.44,1.81,9.82,9.82,0,0,1-3.52,2.14,7.17,7.17,0,0,1-3.57.33,4.38,4.38,0,0,1-2.56-1.22c-.4-.44-.36-1.07.13-1.88l3.37-4.56.61-.78a1.34,1.34,0,0,0,.32-.73,1.64,1.64,0,0,0-.17-.93Zm-1.84,2.29L150.47,40c-.28.35-.22.73.17,1.16a2.9,2.9,0,0,0,3,.71,7,7,0,0,0,3.2-1.59c1.06-1,1.29-1.8.69-2.45Z"/><path class="cls-4" d="M164.4,49.38q-1.12.73-4.44.75l-.88-.56c.47-.09,1-.18,1.69-.26a7.14,7.14,0,0,0,2.42-.59,1.59,1.59,0,0,0,.59-.73,13.56,13.56,0,0,0,.24-3.18l2.13,0a20.53,20.53,0,0,1-.76,3.42A2.65,2.65,0,0,1,164.4,49.38Z"/><path class="cls-4" d="M170.94,49.28l-2.11,1.17,1.34,2.44a6.65,6.65,0,0,1,.7,1.55,1.09,1.09,0,0,1-.28.84,2.66,2.66,0,0,1-.86.73l-1.13.62a7.4,7.4,0,0,1-5.19.77A10.18,10.18,0,0,1,158.56,55l2.49-.35a5.87,5.87,0,0,0,2.77,1.81,4.43,4.43,0,0,0,3.53-.49l.67-.37a2.11,2.11,0,0,0,.83-.69,1,1,0,0,0-.15-.89l-1.76-3.2c-.12-.22,0-.4.25-.56l.6-.32c1.49-.83,2.29-1.44,2.42-1.84l2.16.12a.87.87,0,0,0-.14.16A4.55,4.55,0,0,1,170.94,49.28Z"/><path class="cls-4" d="M173.23,57.65a33.9,33.9,0,0,1-1.41,3.12c-.2.41-.72,1.38-1.57,2.9-.39.7-.61,1.09-.65,1.18a4.64,4.64,0,0,0,2.25-.17,6.5,6.5,0,0,0,1.69-1.22l2.33.59a5.32,5.32,0,0,1-1.57,1.18,10.37,10.37,0,0,1-5,.26l-2.09,3.36-2,0,.74-1.09a80.54,80.54,0,0,0,4.22-6.89,5.9,5.9,0,0,0-3.28.25c-1.13.47-1.7.78-1.71.95l.44,1.06-2.16.11L162.51,61h1.14l.24-.09.28-.12a12.73,12.73,0,0,1,2.74-.9,8,8,0,0,1,1.63,0,11.09,11.09,0,0,1,1.85.3l1.09-2.88Z"/><path class="cls-4" d="M174.7,67.9a20.1,20.1,0,0,1,3.3.95l-1,.31.58,2a2.42,2.42,0,0,1-.35,2.17,4,4,0,0,1-2.27,1.42l-5.64,1.62-2.1-.76,6.45-1.85a4.21,4.21,0,0,0,1.91-.93,1.24,1.24,0,0,0,.22-1.23Z"/><path class="cls-4" d="M178.1,78q-.65.28-2,.75l-2.56.84a4.42,4.42,0,0,0,1.33,1.05,2.69,2.69,0,0,0,1.58.13A9,9,0,0,0,178.7,80l1.79,1a12.81,12.81,0,0,1-2.49.78A6.45,6.45,0,0,1,172.32,80l-1.25.46a1.22,1.22,0,0,0-.56.33.85.85,0,0,0,0,.58,3.13,3.13,0,0,0,1,1.6,7.57,7.57,0,0,0,1.88,1.38,3.66,3.66,0,0,0,2.33.28,19.19,19.19,0,0,0,3.25-1.06l2.15,1.06a17.53,17.53,0,0,1-3.11,1,10,10,0,0,1-3.95,0,10.54,10.54,0,0,1-3.39-1.62,4.35,4.35,0,0,1-2-2.82c-.09-.55.39-1,1.44-1.48l3-1.19c1-.4,1.69-.7,2.11-.9s.81-.39,1.19-.55c.71-.35,1.21-.62,1.5-.8l2,.82A10.89,10.89,0,0,1,178.1,78Z"/><path class="cls-4" d="M177.57,91.54c-.89.06-2.3-.45-4.22-1.54l-.5-.92c.46.16,1,.36,1.61.62a7.36,7.36,0,0,0,2.39.67,1.6,1.6,0,0,0,.88-.35,13.49,13.49,0,0,0,1.77-2.64l1.88,1A21.21,21.21,0,0,1,179,91,2.59,2.59,0,0,1,177.57,91.54Z"/><path class="cls-4" d="M179.11,98.51c.84.56,1.75,1.24,2.75,2l-1.08-.08-.19,2.52q-.12,1.53-.81,1.89a4.24,4.24,0,0,1-2.12.24l-6.06-.48-.09,1.15-1.73-1.29.52-6.69L172,99l-.34,4.34,5.41.43a3.62,3.62,0,0,0,1.23-.06.7.7,0,0,0,.41-.67Z"/><path class="cls-4" d="M176.16,111.64c-.88-.14-2.13-1-3.75-2.47l-.27-1c.41.26.88.58,1.42,1a7.14,7.14,0,0,0,2.17,1.21,1.6,1.6,0,0,0,.93-.13A13.29,13.29,0,0,0,179,108l1.59,1.43a20.78,20.78,0,0,1-2.88,2A2.64,2.64,0,0,1,176.16,111.64Z"/><path class="cls-4" d="M175.81,115.5q-5.35-.63-6.2-.6a7.28,7.28,0,0,0-.42,1.13,3.52,3.52,0,0,0,.42,2.77,4.54,4.54,0,0,0,2.91,1.92q2.79.75,3.35-1.35a2.29,2.29,0,0,0-.06-1.23c-.17-.48-.27-.79-.31-.93l2,1.24A2.77,2.77,0,0,1,176,122a4.34,4.34,0,0,1-2.91.1,8.19,8.19,0,0,1-3.24-1.66,6,6,0,0,1-1.91-2.72,4.86,4.86,0,0,1-.18-2.79,2.66,2.66,0,0,1,.46-1.07c.15-.16.81-.2,2-.12l3.49.22a18.64,18.64,0,0,0,3.31.05l.56-.09,1.73,1.66A13,13,0,0,1,175.81,115.5Z"/><path class="cls-4" d="M174.26,124.39a18.65,18.65,0,0,1,2,2.76l-1-.39-.77,2a2.38,2.38,0,0,1-1.59,1.5,3.91,3.91,0,0,1-2.66-.25l-5.46-2.14-1.21-1.88,6.24,2.45a4.25,4.25,0,0,0,2.08.43,1.24,1.24,0,0,0,.93-.85Z"/><path class="cls-4" d="M170.05,137.32a6.16,6.16,0,0,1-1.48.6,2.59,2.59,0,0,1-1.63,0,14.46,14.46,0,0,1-1.61-.71c-1.15-.59-2.24-1.21-3.28-1.86l-1.54-1.81,2.75-5.37,1.23,1.6-2.28,4.45a22,22,0,0,0,2.23,1.32,12.66,12.66,0,0,0,2.11.95,2,2,0,0,0,1,0,6.37,6.37,0,0,0,1.56-.77,7.38,7.38,0,0,0,1.34-.93,1.25,1.25,0,0,0-.36-.71,3.05,3.05,0,0,0-.91-.73,1.94,1.94,0,0,0-2.05.3l-.94-1.38a2.92,2.92,0,0,1,3.05-.28,4.65,4.65,0,0,1,1.57,1.76A11.34,11.34,0,0,1,172,136,10,10,0,0,1,170.05,137.32Z"/><path class="cls-4" d="M168.52,142.4l-2.69.68a2.4,2.4,0,0,1-2-.31l-5.72-3.56-.56-1.88,6.07,3.77a1.69,1.69,0,0,0,1,.34,3.37,3.37,0,0,0,1-.25l2-.73Z"/><path class="cls-4" d="M165.15,147.25c-1.67.22-2.81.33-3.4.34s-1.55.06-3.29.1l-1.35,0a4.81,4.81,0,0,0,1.27,1.86,6.77,6.77,0,0,0,1.91.85l.66,2.3a5.4,5.4,0,0,1-1.82-.76,10.5,10.5,0,0,1-2.75-4.22l-3.95-.12-1-1.77,1.32.09c2.63.2,5.32.26,8.08.2a6,6,0,0,0-1.87-2.72c-1-.74-1.53-1.07-1.67-1l-.7.91-1.18-1.81,1.43-1.87.57,1,.2.16.24.18a12.65,12.65,0,0,1,2.16,1.92,8.24,8.24,0,0,1,.84,1.4,12.58,12.58,0,0,1,.66,1.75l3-.5Z"/><path class="cls-5" d="M48.91,156.86l6.28,3.85a.77.77,0,0,1,.23.25.63.63,0,0,1,.07.3.75.75,0,0,1-.15.44.47.47,0,0,1-.38.2.56.56,0,0,1-.32-.11l-6.71-4.22v3.73a.54.54,0,0,1-.61.61.54.54,0,0,1-.62-.61v-8.7a.55.55,0,0,1,.63-.61.53.53,0,0,1,.6.61v3.6l6.41-4.1a.33.33,0,0,1,.16-.09.44.44,0,0,1,.16,0,.55.55,0,0,1,.42.2.69.69,0,0,1,.18.46.57.57,0,0,1-.06.25.62.62,0,0,1-.22.24Z"/><path class="cls-5" d="M67.22,155.63c0,1.56-1.07,2.34-3.23,2.34H60.9l5.35,2.7a.49.49,0,0,1,.26.23.56.56,0,0,1,.08.3.8.8,0,0,1-.16.49.46.46,0,0,1-.4.22.43.43,0,0,1-.24-.08l-7.34-4v3.43a.54.54,0,0,1-.62.61c-.44,0-.65-.2-.65-.61v-8.77c0-.31.13-.47.41-.47H63.7q3.52,0,3.52,2.52ZM66,154.49c0-.85-.69-1.27-2.07-1.27H58.45v3.58h5.67c1.23,0,1.85-.34,1.85-1Z"/><path class="cls-5" d="M76.91,159.18H70.4L69,161.61a.63.63,0,0,1-.23.23.49.49,0,0,1-.24.07.63.63,0,0,1-.64-.65,1,1,0,0,1,.08-.37l4.87-8.41a1,1,0,0,1,.37-.39.81.81,0,0,1,.88,0,.86.86,0,0,1,.36.39l4.89,8.4a.4.4,0,0,1,.09.2.62.62,0,0,1,0,.18.58.58,0,0,1-.19.46.64.64,0,0,1-.44.17.56.56,0,0,1-.26-.08.77.77,0,0,1-.25-.23ZM71.07,158H76.2l-2.53-4.67Z"/><path class="cls-5" d="M84.06,160.6l4.59-8.25a.59.59,0,0,1,.23-.26.49.49,0,0,1,.28-.09.62.62,0,0,1,.44.2.64.64,0,0,1,.19.47l0,.17a.36.36,0,0,1-.07.18l-4.84,8.35a1.2,1.2,0,0,1-.37.4.79.79,0,0,1-.45.14.86.86,0,0,1-.44-.12,1,1,0,0,1-.36-.41L78.37,153a.82.82,0,0,1-.11-.38.63.63,0,0,1,.2-.47.59.59,0,0,1,.43-.19.63.63,0,0,1,.28.08.59.59,0,0,1,.23.26Z"/><path class="cls-5" d="M109.36,161.3c0,.41-.21.61-.64.61a.54.54,0,0,1-.61-.61v-7.14l-4.73,7.25a1,1,0,0,1-.86.5,1.07,1.07,0,0,1-.51-.12,1.37,1.37,0,0,1-.38-.38l-4.81-7.22v7.11a.54.54,0,0,1-.61.61c-.42,0-.63-.2-.63-.61v-8.47c0-.56.23-.84.7-.84a1,1,0,0,1,.84.52l5.41,8,5.32-8.05a.92.92,0,0,1,.33-.32.87.87,0,0,1,.44-.11c.5,0,.74.29.74.87Z"/><path class="cls-5" d="M119.78,159.18h-6.5l-1.41,2.43a.63.63,0,0,1-.23.23.49.49,0,0,1-.24.07.63.63,0,0,1-.64-.65,1,1,0,0,1,.08-.37l4.87-8.41a1,1,0,0,1,.37-.39.81.81,0,0,1,.88,0,1,1,0,0,1,.36.39l4.89,8.4a.4.4,0,0,1,.09.2,1.41,1.41,0,0,1,0,.18.58.58,0,0,1-.19.46.64.64,0,0,1-.44.17.56.56,0,0,1-.26-.08.77.77,0,0,1-.25-.23ZM114,158h5.13l-2.53-4.67Z"/><path class="cls-5" d="M133.73,159.46c0,1.59-1,2.38-3.15,2.38h-3.44c-2.29,0-3.44-.79-3.44-2.38V154.4c0-1.56,1.16-2.34,3.47-2.34h1.35c.3,0,.45.19.45.59s-.15.57-.45.57h-1c-1.72,0-2.58.39-2.58,1.18v5.08q0,1.2,2.19,1.2h3.41c1.25,0,1.87-.38,1.87-1.16V156.9c0-.39.22-.59.65-.59s.63.2.63.59Z"/><path class="cls-5" d="M143.81,159.18h-6.5l-1.41,2.43a.72.72,0,0,1-.23.23.49.49,0,0,1-.24.07.63.63,0,0,1-.45-.18.65.65,0,0,1-.2-.47.84.84,0,0,1,.09-.37l4.86-8.41a1.07,1.07,0,0,1,.37-.39.81.81,0,0,1,.45-.13.8.8,0,0,1,.44.13,1,1,0,0,1,.36.39l4.89,8.4a.52.52,0,0,1,.09.2,1.21,1.21,0,0,1,0,.18.6.6,0,0,1-.18.46.68.68,0,0,1-.45.17.59.59,0,0,1-.26-.08.89.89,0,0,1-.25-.23ZM138,158h5.14l-2.54-4.67Z"/><path class="cls-5" d="M132.5,158.31c0-1.44-.4-1.86-1.17-1.85l-2.6,0c-.4,0-.59-.21-.6-.64s.19-.62.58-.63l2.56,0c2-.05,2.52.94,2.48,3.11"/></svg>